# MagicaVoxel @ Ephtracy

# group
o 

# material
mtllib knife.mtl
usemtl palette

# normals
vn -1 0 0
vn 1 0 0
vn 0 0 1
vn 0 0 -1
vn 0 -1 0
vn 0 1 0

# texcoords
vt 0.306641 0.5
vt 0.962891 0.5
vt 0.970703 0.5
vt 0.974609 0.5
vt 0.982422 0.5
vt 0.986328 0.5
vt 0.990234 0.5

# verts
v 0 -1 -0.2
v 0 -1 -0.3
v 0 -0.7 -0.2
v 0 -0.7 -0.3
v 0 0 -0.1
v 0 0 -0.2
v 0 0 -0.3
v 0 0 -0.4
v 0 0.1 -0.1
v 0 0.1 -0.2
v 0 0.1 -0.3
v 0 0.1 -0.4
v 0 0.2 -0.2
v 0 0.2 -0.3
v 0 0.7 -0.2
v 0 0.7 -0.3
v 0 0.8 -0.1
v 0 0.8 -0.2
v 0 0.8 -0.3
v 0 0.8 -0.4
v 0 0.9 -0.1
v 0 0.9 -0.4
v 0.1 0.1 -0.1
v 0.1 0.1 -0.2
v 0.1 0.1 -0.3
v 0.1 0.1 -0.4
v 0.1 0.2 -0.1
v 0.1 0.2 -0.2
v 0.1 0.2 -0.3
v 0.1 0.2 -0.4
v 0.1 0.7 -0.1
v 0.1 0.7 -0.2
v 0.1 0.7 -0.3
v 0.1 0.7 -0.4
v 0.1 0.8 -0.1
v 0.1 0.8 -0.2
v 0.1 0.8 -0.3
v 0.1 0.8 -0.4
v 0.1 -1 -0.2
v 0.1 -1 -0.3
v 0.1 -0.9 -0.2
v 0.1 -0.9 -0.3
v 0.2 -0.9 -0.2
v 0.2 -0.9 -0.3
v 0.2 -0.8 -0.2
v 0.2 -0.8 -0.3
v 0.2 0.1 -0.1
v 0.2 0.1 -0.2
v 0.2 0.1 -0.3
v 0.2 0.1 -0.4
v 0.2 0.2 -0.1
v 0.2 0.2 -0.2
v 0.2 0.2 -0.3
v 0.2 0.2 -0.4
v 0.2 0.7 -0.1
v 0.2 0.7 -0.2
v 0.2 0.7 -0.3
v 0.2 0.7 -0.4
v 0.2 0.8 -0.1
v 0.2 0.8 -0.2
v 0.2 0.8 -0.3
v 0.2 0.8 -0.4
v 0.3 -0.8 -0.2
v 0.3 -0.8 -0.3
v 0.3 -0.6 -0.2
v 0.3 -0.6 -0.3
v 0.3 -0.2 -0.2
v 0.3 -0.2 -0.3
v 0.3 0 -0.2
v 0.3 0 -0.3
v 0.3 0.1 -0.2
v 0.3 0.1 -0.3
v 0.3 0.2 -0.2
v 0.3 0.2 -0.3
v 0.3 0.7 -0.2
v 0.3 0.7 -0.3
v 0.3 0.8 -0.1
v 0.3 0.8 -0.2
v 0.3 0.8 -0.3
v 0.3 0.8 -0.4
v 0.3 0.9 -0.1
v 0.3 0.9 -0.4
v 0.4 -0.6 -0.2
v 0.4 -0.6 -0.3
v 0.4 -0.2 -0.2
v 0.4 -0.2 -0.3
v 0.4 0 -0.1
v 0.4 0 -0.4
v 0.4 0.1 -0.1
v 0.4 0.1 -0.4
v 0 0 -0.1
v 0 0.1 -0.1
v 0 0.8 -0.1
v 0 0.9 -0.1
v 0.1 0.1 -0.1
v 0.1 0.2 -0.1
v 0.1 0.7 -0.1
v 0.1 0.8 -0.1
v 0.2 0.1 -0.1
v 0.2 0.2 -0.1
v 0.2 0.7 -0.1
v 0.2 0.8 -0.1
v 0.3 0.8 -0.1
v 0.3 0.9 -0.1
v 0.4 0 -0.1
v 0.4 0.1 -0.1
v 0 -1 -0.2
v 0 -0.7 -0.2
v 0 0 -0.2
v 0 0.1 -0.2
v 0 0.2 -0.2
v 0 0.7 -0.2
v 0 0.8 -0.2
v 0.1 -1 -0.2
v 0.1 -0.9 -0.2
v 0.1 -0.7 -0.2
v 0.1 -0.6 -0.2
v 0.1 -0.3 -0.2
v 0.1 0 -0.2
v 0.1 0.1 -0.2
v 0.1 0.2 -0.2
v 0.1 0.7 -0.2
v 0.1 0.8 -0.2
v 0.2 -0.9 -0.2
v 0.2 -0.8 -0.2
v 0.2 -0.6 -0.2
v 0.2 -0.4 -0.2
v 0.2 -0.3 -0.2
v 0.2 0 -0.2
v 0.2 0.1 -0.2
v 0.2 0.2 -0.2
v 0.2 0.7 -0.2
v 0.2 0.8 -0.2
v 0.3 -0.8 -0.2
v 0.3 -0.6 -0.2
v 0.3 -0.4 -0.2
v 0.3 -0.2 -0.2
v 0.3 0 -0.2
v 0.3 0.1 -0.2
v 0.3 0.2 -0.2
v 0.3 0.7 -0.2
v 0.3 0.8 -0.2
v 0.4 -0.6 -0.2
v 0.4 -0.2 -0.2
v 0 -1 -0.3
v 0 -0.7 -0.3
v 0 0 -0.3
v 0 0.1 -0.3
v 0 0.2 -0.3
v 0 0.7 -0.3
v 0 0.8 -0.3
v 0.1 -1 -0.3
v 0.1 -0.9 -0.3
v 0.1 -0.7 -0.3
v 0.1 -0.6 -0.3
v 0.1 -0.3 -0.3
v 0.1 0 -0.3
v 0.1 0.1 -0.3
v 0.1 0.2 -0.3
v 0.1 0.7 -0.3
v 0.1 0.8 -0.3
v 0.2 -0.9 -0.3
v 0.2 -0.8 -0.3
v 0.2 -0.6 -0.3
v 0.2 -0.4 -0.3
v 0.2 -0.3 -0.3
v 0.2 0 -0.3
v 0.2 0.1 -0.3
v 0.2 0.2 -0.3
v 0.2 0.7 -0.3
v 0.2 0.8 -0.3
v 0.3 -0.8 -0.3
v 0.3 -0.6 -0.3
v 0.3 -0.4 -0.3
v 0.3 -0.2 -0.3
v 0.3 0 -0.3
v 0.3 0.1 -0.3
v 0.3 0.2 -0.3
v 0.3 0.7 -0.3
v 0.3 0.8 -0.3
v 0.4 -0.6 -0.3
v 0.4 -0.2 -0.3
v 0 0 -0.4
v 0 0.1 -0.4
v 0 0.8 -0.4
v 0 0.9 -0.4
v 0.1 0.1 -0.4
v 0.1 0.2 -0.4
v 0.1 0.7 -0.4
v 0.1 0.8 -0.4
v 0.2 0.1 -0.4
v 0.2 0.2 -0.4
v 0.2 0.7 -0.4
v 0.2 0.8 -0.4
v 0.3 0.8 -0.4
v 0.3 0.9 -0.4
v 0.4 0 -0.4
v 0.4 0.1 -0.4
v 0 -1 -0.2
v 0.1 -1 -0.2
v 0 -1 -0.3
v 0.1 -1 -0.3
v 0.1 -0.9 -0.2
v 0.2 -0.9 -0.2
v 0.1 -0.9 -0.3
v 0.2 -0.9 -0.3
v 0.2 -0.8 -0.2
v 0.3 -0.8 -0.2
v 0.2 -0.8 -0.3
v 0.3 -0.8 -0.3
v 0.3 -0.6 -0.2
v 0.4 -0.6 -0.2
v 0.3 -0.6 -0.3
v 0.4 -0.6 -0.3
v 0 0 -0.1
v 0.4 0 -0.1
v 0 0 -0.2
v 0.1 0 -0.2
v 0.2 0 -0.2
v 0.3 0 -0.2
v 0 0 -0.3
v 0.1 0 -0.3
v 0.2 0 -0.3
v 0.3 0 -0.3
v 0 0 -0.4
v 0.4 0 -0.4
v 0 0.8 -0.1
v 0.1 0.8 -0.1
v 0.2 0.8 -0.1
v 0.3 0.8 -0.1
v 0 0.8 -0.2
v 0.1 0.8 -0.2
v 0.2 0.8 -0.2
v 0.3 0.8 -0.2
v 0 0.8 -0.3
v 0.1 0.8 -0.3
v 0.2 0.8 -0.3
v 0.3 0.8 -0.3
v 0 0.8 -0.4
v 0.1 0.8 -0.4
v 0.2 0.8 -0.4
v 0.3 0.8 -0.4
v 0.3 -0.2 -0.2
v 0.4 -0.2 -0.2
v 0.3 -0.2 -0.3
v 0.4 -0.2 -0.3
v 0 0.1 -0.1
v 0.1 0.1 -0.1
v 0.2 0.1 -0.1
v 0.4 0.1 -0.1
v 0 0.1 -0.2
v 0.1 0.1 -0.2
v 0.2 0.1 -0.2
v 0.3 0.1 -0.2
v 0 0.1 -0.3
v 0.1 0.1 -0.3
v 0.2 0.1 -0.3
v 0.3 0.1 -0.3
v 0 0.1 -0.4
v 0.1 0.1 -0.4
v 0.2 0.1 -0.4
v 0.4 0.1 -0.4
v 0 0.9 -0.1
v 0.3 0.9 -0.1
v 0 0.9 -0.4
v 0.3 0.9 -0.4

# faces
f 3/2/1 2/2/1 1/2/1
f 4/2/1 2/2/1 3/2/1
f 6/3/1 4/3/1 3/3/1
f 7/3/1 4/3/1 6/3/1
f 9/7/1 7/7/1 6/7/1
f 9/7/1 8/7/1 7/7/1
f 9/7/1 6/7/1 5/7/1
f 10/7/1 8/7/1 9/7/1
f 11/7/1 8/7/1 10/7/1
f 12/7/1 8/7/1 11/7/1
f 13/6/1 11/6/1 10/6/1
f 14/6/1 11/6/1 13/6/1
f 15/5/1 14/5/1 13/5/1
f 16/5/1 14/5/1 15/5/1
f 18/6/1 16/6/1 15/6/1
f 19/6/1 16/6/1 18/6/1
f 21/7/1 19/7/1 18/7/1
f 21/7/1 20/7/1 19/7/1
f 21/7/1 18/7/1 17/7/1
f 22/7/1 20/7/1 21/7/1
f 27/6/1 24/6/1 23/6/1
f 28/6/1 24/6/1 27/6/1
f 29/6/1 26/6/1 25/6/1
f 30/6/1 26/6/1 29/6/1
f 31/5/1 28/5/1 27/5/1
f 32/5/1 28/5/1 31/5/1
f 33/5/1 30/5/1 29/5/1
f 34/5/1 30/5/1 33/5/1
f 35/6/1 32/6/1 31/6/1
f 36/6/1 32/6/1 35/6/1
f 37/6/1 34/6/1 33/6/1
f 38/6/1 34/6/1 37/6/1
f 39/2/2 40/2/2 41/2/2
f 41/2/2 40/2/2 42/2/2
f 43/2/2 44/2/2 45/2/2
f 45/2/2 44/2/2 46/2/2
f 47/6/2 48/6/2 51/6/2
f 51/6/2 48/6/2 52/6/2
f 49/6/2 50/6/2 53/6/2
f 53/6/2 50/6/2 54/6/2
f 51/5/2 52/5/2 55/5/2
f 55/5/2 52/5/2 56/5/2
f 53/5/2 54/5/2 57/5/2
f 57/5/2 54/5/2 58/5/2
f 55/6/2 56/6/2 59/6/2
f 59/6/2 56/6/2 60/6/2
f 57/6/2 58/6/2 61/6/2
f 61/6/2 58/6/2 62/6/2
f 63/2/2 64/2/2 65/2/2
f 65/2/2 64/2/2 66/2/2
f 67/3/2 68/3/2 69/3/2
f 69/3/2 68/3/2 70/3/2
f 71/6/2 72/6/2 73/6/2
f 73/6/2 72/6/2 74/6/2
f 73/5/2 74/5/2 75/5/2
f 75/5/2 74/5/2 76/5/2
f 75/6/2 76/6/2 78/6/2
f 78/6/2 76/6/2 79/6/2
f 78/7/2 79/7/2 81/7/2
f 79/7/2 80/7/2 81/7/2
f 77/7/2 78/7/2 81/7/2
f 81/7/2 80/7/2 82/7/2
f 83/2/2 84/2/2 85/2/2
f 85/2/2 84/2/2 86/2/2
f 87/7/2 88/7/2 89/7/2
f 89/7/2 88/7/2 90/7/2
f 95/7/3 92/7/3 91/7/3
f 98/7/3 94/7/3 93/7/3
f 99/7/3 95/7/3 91/7/3
f 99/6/3 96/6/3 95/6/3
f 100/5/3 97/5/3 96/5/3
f 100/6/3 96/6/3 99/6/3
f 101/6/3 98/6/3 97/6/3
f 101/5/3 97/5/3 100/5/3
f 102/7/3 94/7/3 98/7/3
f 102/6/3 98/6/3 101/6/3
f 103/7/3 94/7/3 102/7/3
f 104/7/3 94/7/3 103/7/3
f 105/7/3 99/7/3 91/7/3
f 106/7/3 99/7/3 105/7/3
f 114/2/3 108/2/3 107/2/3
f 115/2/3 108/2/3 114/2/3
f 116/3/3 109/3/3 108/3/3
f 116/2/3 108/2/3 115/2/3
f 117/3/3 109/3/3 116/3/3
f 118/3/3 109/3/3 117/3/3
f 119/3/3 109/3/3 118/3/3
f 120/6/3 111/6/3 110/6/3
f 121/5/3 112/5/3 111/5/3
f 121/6/3 111/6/3 120/6/3
f 122/6/3 113/6/3 112/6/3
f 122/5/3 112/5/3 121/5/3
f 123/6/3 113/6/3 122/6/3
f 124/2/3 116/2/3 115/2/3
f 124/2/3 117/2/3 116/2/3
f 125/2/3 117/2/3 124/2/3
f 126/3/3 118/3/3 117/3/3
f 126/2/3 117/2/3 125/2/3
f 127/3/3 118/3/3 126/3/3
f 128/4/3 119/4/3 118/4/3
f 128/3/3 118/3/3 127/3/3
f 129/4/3 119/4/3 128/4/3
f 134/2/3 127/2/3 126/2/3
f 134/2/3 126/2/3 125/2/3
f 135/2/3 127/2/3 134/2/3
f 136/3/3 128/3/3 127/3/3
f 136/2/3 127/2/3 135/2/3
f 136/3/3 129/3/3 128/3/3
f 137/3/3 129/3/3 136/3/3
f 138/3/3 129/3/3 137/3/3
f 139/6/3 131/6/3 130/6/3
f 140/5/3 132/5/3 131/5/3
f 140/6/3 131/6/3 139/6/3
f 141/6/3 133/6/3 132/6/3
f 141/5/3 132/5/3 140/5/3
f 142/6/3 133/6/3 141/6/3
f 143/2/3 137/2/3 136/2/3
f 143/2/3 136/2/3 135/2/3
f 144/2/3 137/2/3 143/2/3
f 145/2/4 146/2/4 152/2/4
f 152/2/4 146/2/4 153/2/4
f 146/3/4 147/3/4 154/3/4
f 153/2/4 146/2/4 154/2/4
f 154/3/4 147/3/4 155/3/4
f 155/3/4 147/3/4 156/3/4
f 156/3/4 147/3/4 157/3/4
f 148/6/4 149/6/4 158/6/4
f 149/5/4 150/5/4 159/5/4
f 158/6/4 149/6/4 159/6/4
f 150/6/4 151/6/4 160/6/4
f 159/5/4 150/5/4 160/5/4
f 160/6/4 151/6/4 161/6/4
f 153/2/4 154/2/4 162/2/4
f 154/2/4 155/2/4 162/2/4
f 162/2/4 155/2/4 163/2/4
f 155/3/4 156/3/4 164/3/4
f 163/2/4 155/2/4 164/2/4
f 164/3/4 156/3/4 165/3/4
f 156/4/4 157/4/4 166/4/4
f 165/3/4 156/3/4 166/3/4
f 166/4/4 157/4/4 167/4/4
f 164/2/4 165/2/4 172/2/4
f 163/2/4 164/2/4 172/2/4
f 172/2/4 165/2/4 173/2/4
f 165/3/4 166/3/4 174/3/4
f 173/2/4 165/2/4 174/2/4
f 166/3/4 167/3/4 174/3/4
f 174/3/4 167/3/4 175/3/4
f 175/3/4 167/3/4 176/3/4
f 168/6/4 169/6/4 177/6/4
f 169/5/4 170/5/4 178/5/4
f 177/6/4 169/6/4 178/6/4
f 170/6/4 171/6/4 179/6/4
f 178/5/4 170/5/4 179/5/4
f 179/6/4 171/6/4 180/6/4
f 174/2/4 175/2/4 181/2/4
f 173/2/4 174/2/4 181/2/4
f 181/2/4 175/2/4 182/2/4
f 183/7/4 184/7/4 187/7/4
f 185/7/4 186/7/4 190/7/4
f 183/7/4 187/7/4 191/7/4
f 187/6/4 188/6/4 191/6/4
f 188/5/4 189/5/4 192/5/4
f 191/6/4 188/6/4 192/6/4
f 189/6/4 190/6/4 193/6/4
f 192/5/4 189/5/4 193/5/4
f 190/7/4 186/7/4 194/7/4
f 193/6/4 190/6/4 194/6/4
f 194/7/4 186/7/4 195/7/4
f 195/7/4 186/7/4 196/7/4
f 183/7/4 191/7/4 197/7/4
f 197/7/4 191/7/4 198/7/4
f 201/2/5 200/2/5 199/2/5
f 202/2/5 200/2/5 201/2/5
f 205/2/5 204/2/5 203/2/5
f 206/2/5 204/2/5 205/2/5
f 209/2/5 208/2/5 207/2/5
f 210/2/5 208/2/5 209/2/5
f 213/2/5 212/2/5 211/2/5
f 214/2/5 212/2/5 213/2/5
f 217/7/5 216/7/5 215/7/5
f 218/7/5 216/7/5 217/7/5
f 219/7/5 216/7/5 218/7/5
f 220/7/5 216/7/5 219/7/5
f 224/7/5 216/7/5 220/7/5
f 225/7/5 223/7/5 222/7/5
f 225/7/5 224/7/5 223/7/5
f 225/7/5 222/7/5 221/7/5
f 226/7/5 216/7/5 224/7/5
f 226/7/5 224/7/5 225/7/5
f 231/7/5 228/7/5 227/7/5
f 232/7/5 228/7/5 231/7/5
f 233/7/5 230/7/5 229/7/5
f 234/7/5 230/7/5 233/7/5
f 239/7/5 236/7/5 235/7/5
f 240/7/5 236/7/5 239/7/5
f 241/7/5 238/7/5 237/7/5
f 242/7/5 238/7/5 241/7/5
f 243/2/6 244/2/6 245/2/6
f 245/2/6 244/2/6 246/2/6
f 247/7/6 248/7/6 251/7/6
f 251/7/6 248/7/6 252/7/6
f 249/7/6 250/7/6 253/7/6
f 253/7/6 250/7/6 254/7/6
f 254/7/6 250/7/6 258/7/6
f 255/7/6 256/7/6 259/7/6
f 259/7/6 256/7/6 260/7/6
f 257/7/6 258/7/6 261/7/6
f 258/7/6 250/7/6 262/7/6
f 261/7/6 258/7/6 262/7/6
f 263/7/6 264/7/6 265/7/6
f 265/7/6 264/7/6 266/7/6
